# xmcd
#
# Track frame offsets: 
#        150
#        13130
#        29069
#        50217
#        62847
#        86609
#        104346
#        136270
#        170682
#        183280
#        196102
#        210273
#        223741
#        234180
#        248771
#        264506
#        282222
#        289967
#        302250
#        325549
#
# Disc length: 4562 seconds
#
# Revision: 0
# Processed by: cddbd v1.4PL0 Copyright (c) Steve Scherf et al.
# Submitted via: ExactAudioCopy v0.90b4
#
DISCID=1f11d014
DTITLE=Ella Fitzgerald  - Gold - Disc 2
DYEAR=1900
DGENRE=
TTITLE0=Manhattan
TTITLE1='s Wonderful
TTITLE2=They can't take it away from m
TTITLE3=I've Got You Under My Skin
TTITLE4=Stormy Weather
TTITLE5=My Funny Valentine
TTITLE6=Bewitched
TTITLE7=These Foolish Things
TTITLE8=With A Song in My Heart
TTITLE9=There's a Small Hotel
TTITLE10=Night and Day
TTITLE11=Let's Face The Music and Dance
TTITLE12=Puttin' on the Ritz
TTITLE13=Blue Moon
TTITLE14=Isn't this a lovely day
TTITLE15=Love Is Here To Stay
TTITLE16=I Only Have Eyes For You
TTITLE17=The Man I Love
TTITLE18=Tenderly
TTITLE19=I Could Write A Book
EXTD=
EXTT0=
EXTT1=
EXTT2=
EXTT3=
EXTT4=
EXTT5=
EXTT6=
EXTT7=
EXTT8=
EXTT9=
EXTT10=
EXTT11=
EXTT12=
EXTT13=
EXTT14=
EXTT15=
EXTT16=
EXTT17=
EXTT18=
EXTT19=
PLAYORDER=
